<svg xmlns="http://www.w3.org/2000/svg" width="96" height="80" viewBox="0 0 96 80" fill="none">
	<g clip-path="url(#clip0_277_1888)">
		<path d="M48.3304 80C48.3304 80 48.0971 80 47.9804 79.9612L13.0254 68.2444C12.5588 68.0892 12.2866 67.6625 12.2866 67.1969V24.5587C12.2866 23.9379 12.7921 23.4724 13.3753 23.4724C13.9586 23.4724 14.464 23.9767 14.464 24.5587V66.3821L48.3304 77.7497L82.1578 68.1668V25.1018C82.1578 24.4811 82.6633 24.0155 83.2465 24.0155C83.8298 24.0155 84.3352 24.5199 84.3352 25.1018V69.0204C84.3352 69.5247 84.0242 69.9515 83.5187 70.0679L48.5637 79.9612C48.5637 79.9612 48.3692 80 48.2526 80H48.3304Z" fill="#0F283D"></path>
		<path d="M48.3304 80C47.7083 80 47.2417 79.4957 47.2417 78.9137V24.8303C47.2417 24.2095 47.7472 23.744 48.3304 23.744C48.9136 23.744 49.4191 24.2483 49.4191 24.8303V78.9137C49.4191 79.5344 48.9136 80 48.3304 80Z" fill="#ED6B27"></path>
		<path d="M14.5418 15.6353C14.5418 15.6353 14.3474 15.6353 14.2308 15.5965L2.02178 12.0271C1.5552 11.872 1.24414 11.4452 1.24414 10.9796C1.24414 10.4753 1.59408 10.0485 2.06067 9.9321L37.5212 0.0387886C37.5212 0.0387886 37.91 -8.63522e-06 38.1044 0.0387886L48.6026 2.87099C49.1858 3.02618 49.5358 3.64694 49.3802 4.2289C49.2247 4.81085 48.6026 5.16003 48.0194 5.00484L37.7934 2.25023L6.3377 11.0184L14.8529 13.5014C15.4361 13.6566 15.7861 14.2774 15.5917 14.8594C15.4361 15.3249 15.0084 15.6353 14.5418 15.6353Z" fill="#0F283D"></path>
		<path d="M82.1193 15.6353C81.6527 15.6353 81.1861 15.3249 81.0695 14.8593C80.914 14.2774 81.225 13.6566 81.8083 13.5014L90.3234 11.0184L58.8289 2.25021L48.6029 5.00482C48.0197 5.16001 47.3976 4.81083 47.242 4.22887C47.0865 3.64692 47.4364 3.02616 48.0197 2.87097L58.5567 -2.97111e-05C58.5567 -2.97111e-05 58.9456 -0.038827 59.14 -2.97111e-05L94.6394 9.89328C95.1059 10.0097 95.4559 10.4364 95.4559 10.9408C95.4559 11.4452 95.1448 11.8719 94.6782 11.9883L82.4692 15.5577C82.4692 15.5577 82.2748 15.5965 82.1582 15.5965L82.1193 15.6353Z" fill="#0F283D"></path>
		<path d="M35.8882 33.7924C35.8882 33.7924 35.616 33.7924 35.4994 33.7148L0.738761 20.9893C0.311057 20.8341 0.0388821 20.4461 0 19.9806C0 19.5538 0.233293 19.127 0.660996 18.933L14.1142 12.8031C14.6586 12.5315 15.3196 12.8031 15.5917 13.3462C15.825 13.8894 15.5917 14.549 15.0474 14.8205L4.00486 19.8254L35.8105 31.4646L47.7473 25.3346C48.2916 25.063 48.9526 25.257 49.2248 25.8002C49.497 26.3433 49.3026 27.0029 48.7582 27.2745L36.3937 33.6372C36.3937 33.6372 36.0437 33.7536 35.8882 33.7536V33.7924Z" fill="#0F283D"></path>
		<path d="M60.1506 33.7924C60.1506 33.7924 59.8007 33.7536 59.6451 33.676L47.2806 27.3133C46.7363 27.0417 46.5419 26.3821 46.814 25.839C47.0862 25.2958 47.7472 25.1018 48.2916 25.3734L60.2284 31.5034L92.034 19.8642L80.9914 14.8594C80.4471 14.5878 80.1749 13.967 80.4471 13.3851C80.7193 12.8419 81.3414 12.5703 81.9246 12.8419L95.3778 18.9719C95.7666 19.1659 96.0388 19.5538 96.0388 20.0194C96.0388 20.4462 95.7278 20.8729 95.3001 21.0281L60.5394 33.7536C60.5394 33.7536 60.3061 33.8312 60.1506 33.8312V33.7924Z" fill="#0F283D"></path>
		<path d="M83.2857 14.937C83.2857 14.937 83.0913 14.937 82.9746 14.8982L48.3306 5.08246L13.6866 14.8982C13.1034 15.0534 12.4813 14.743 12.3258 14.1222C12.1702 13.5403 12.4813 12.9195 13.1034 12.7643L48.0196 2.87102C48.214 2.83222 48.4084 2.83222 48.6028 2.87102L83.5578 12.7643C84.1411 12.9195 84.491 13.5403 84.3355 14.1222C84.18 14.5878 83.7523 14.937 83.2857 14.937Z" fill="#0F283D"></path>
		<path d="M48.3308 25.9166C48.3308 25.9166 48.0975 25.9166 48.0198 25.8778L13.0647 15.2473C12.4815 15.0533 12.1704 14.4714 12.326 13.8894C12.5204 13.3075 13.1036 12.9971 13.6868 13.1523L48.3308 23.6663L82.9748 13.1523C83.558 12.9583 84.1802 13.3075 84.3357 13.8894C84.5301 14.4714 84.1802 15.0921 83.5969 15.2473L48.6419 25.8778C48.6419 25.8778 48.4475 25.9166 48.3308 25.9166Z" fill="#0F283D"></path>
	</g>
	<defs>
		<clipPath id="clip0_277_1888">
			<rect width="96" height="80" fill="white"></rect>
		</clipPath>
	</defs>
</svg>